<?xml version="1.0"?>
<svg xmlns="http://www.w3.org/2000/svg" id="icons" enable-background="new 0 0 64 64" height="512px" viewBox="0 0 64 64" width="512px" class=""><g><path d="m48.35 14.66c-1.45-1.45-2.35-3.45-2.35-5.66h-40c-2.2 0-4 1.8-4 4v46c0 2.2 1.8 4 4 4h17 27c2.2 0 4-1.8 4-4v-42c-2.2 0-4.2-.9-5.65-2.34z" fill="#656d78" data-original="#656D78" class="active-path" data-old_color="#656d78" style="fill:#FFFFFF"/><path d="m48 21v3 33h-17-8-15v-33-3-6h40z" fill="#434a54" data-original="#434A54" class="" data-old_color="#434a54" style="fill:#FFFFFF"/><path d="m30 27v3h-2-2v-3z" fill="#ccd1d9" data-original="#CCD1D9" class=""/><path d="m32 24v3h-2-4-2v-3-3-3h8v3z" fill="#e6e9ed" data-original="#E6E9ED" class="" data-old_color="#e6e9ed" style="fill:#FFFFFF"/><path d="m35 52v1c0 2.2-1.8 4-4 4h-8c-2.2 0-4-1.8-4-4v-15h16v3z" fill="#ed5565" data-original="#ED5565" class="" data-old_color="#ed5565" style="fill:#66CC99"/><path d="m32.02 21h15.98v3h-15.98-.02v-3z" fill="#aab2bd" data-original="#AAB2BD" class="" data-old_color="#aab2bd" style="fill:#FFFFFF"/><path d="m54 1c4.42 0 8 3.58 8 8s-3.58 8-8 8c-2.2 0-4.2-.9-5.65-2.34-1.45-1.45-2.35-3.45-2.35-5.66 0-4.42 3.59-8 8-8z" fill="#a0d468" data-original="#A0D468" class="" data-old_color="#a0d468" style="fill:#66CC99"/><path d="m8 21h16v3h-16z" fill="#aab2bd" data-original="#AAB2BD" class="" data-old_color="#aab2bd" style="fill:#FFFFFF"/><path d="m49.998 64h-44c-2.757 0-5-2.243-5-5v-46.002c0-2.757 2.243-5 5-5h39.996c.553 0 1 .447 1 1s-.447 1-1 1h-39.996c-1.654 0-3 1.346-3 3v46.002c0 1.654 1.346 3 3 3h44c1.654 0 3-1.346 3-3v-41.998c0-.553.447-1 1-1s1 .447 1 1v41.998c0 2.757-2.243 5-5 5z" data-original="#000000" class="" data-old_color="#000000" style="fill:#003333"/><path d="m47.998 58.002h-40c-.553 0-1-.447-1-1v-42.002c0-.553.447-1 1-1h40c.553 0 1 .447 1 1v42.002c0 .553-.447 1-1 1zm-39-2h38v-40.002h-38z" data-original="#000000" class="" data-old_color="#000000" style="fill:#003333"/><path d="m32 27.998h-8.002c-.553 0-1-.447-1-1v-8.998c0-.553.447-1 1-1h8.002c.553 0 1 .447 1 1v8.998c0 .553-.447 1-1 1zm-7.002-2h6.002v-6.998h-6.002z" data-original="#000000" class="" data-old_color="#000000" style="fill:#003333"/><path d="m23.998 22.002h-16c-.553 0-1-.447-1-1s.447-1 1-1h16c.553 0 1 .447 1 1s-.447 1-1 1z" data-original="#000000" class="" data-old_color="#000000" style="fill:#003333"/><path d="m23.998 24.998h-16c-.553 0-1-.447-1-1s.447-1 1-1h16c.553 0 1 .447 1 1s-.447 1-1 1z" data-original="#000000" class="" data-old_color="#000000" style="fill:#003333"/><path d="m48.021 22.002h-16c-.553 0-1-.447-1-1s.447-1 1-1h16c.553 0 1 .447 1 1s-.447 1-1 1z" data-original="#000000" class="" data-old_color="#000000" style="fill:#003333"/><path d="m48.021 24.998h-16c-.553 0-1-.447-1-1s.447-1 1-1h16c.553 0 1 .447 1 1s-.447 1-1 1z" data-original="#000000" class="" data-old_color="#000000" style="fill:#003333"/><path d="m27.998 32c-.553 0-1-.447-1-1v-.998c0-.553.447-1 1-1s1 .447 1 1v.998c0 .553-.447 1-1 1z" data-original="#000000" class="" data-old_color="#000000" style="fill:#003333"/><path d="m29.998 30.998h-4c-.553 0-1-.447-1-1v-3c0-.553.447-1 1-1h4c.553 0 1 .447 1 1v3c0 .553-.447 1-1 1zm-3-2h2v-1h-2z" data-original="#000000" class="" data-old_color="#000000" style="fill:#003333"/><path d="m32.998 61.002h-10c-.553 0-1-.447-1-1s.447-1 1-1h10c.553 0 1 .447 1 1s-.447 1-1 1z" data-original="#000000" class="" data-old_color="#000000" style="fill:#003333"/><path d="m12.032 61.002c-.553 0-1.005-.447-1.005-1s.442-1 .994-1h.011c.552 0 1 .447 1 1s-.448 1-1 1z" data-original="#000000" class="" data-old_color="#000000" style="fill:#003333"/><path d="m16.034 61.002c-.553 0-1.005-.447-1.005-1s.442-1 .994-1h.011c.552 0 1 .447 1 1s-.448 1-1 1z" data-original="#000000" class="" data-old_color="#000000" style="fill:#003333"/><path d="m40.06 61.002c-.553 0-1.005-.447-1.005-1s.442-1 .994-1h.011c.552 0 1 .447 1 1s-.449 1-1 1z" data-original="#000000" class="" data-old_color="#000000" style="fill:#003333"/><path d="m44.062 61.002c-.553 0-1.005-.447-1.005-1s.442-1 .994-1h.011c.552 0 1 .447 1 1s-.449 1-1 1z" data-original="#000000" class="" data-old_color="#000000" style="fill:#003333"/><path d="m54.002 18c-4.963 0-9-4.037-9-9s4.037-9 9-9 9 4.037 9 9-4.037 9-9 9zm0-16c-3.859 0-7 3.141-7 7s3.141 7 7 7 7-3.141 7-7-3.141-7-7-7z" data-original="#000000" class="" data-old_color="#000000" style="fill:#003333"/><path d="m30.998 58.002h-8c-2.757 0-5-2.243-5-5v-15.006c0-.553.447-1 1-1h16c.553 0 1 .447 1 1v15.006c0 2.757-2.243 5-5 5zm-11-19.006v14.006c0 1.654 1.346 3 3 3h8c1.654 0 3-1.346 3-3v-14.006z" data-original="#000000" class="" data-old_color="#000000" style="fill:#003333"/><path d="m41 45c-.553 0-1-.447-1-1 0-1.103-.897-2-2-2-.553 0-1-.447-1-1s.447-1 1-1c2.206 0 4 1.794 4 4 0 .553-.447 1-1 1z" data-original="#000000" class="" data-old_color="#000000" style="fill:#003333"/><path d="m38 53c-.553 0-1-.447-1-1s.447-1 1-1c1.103 0 2-.897 2-2 0-.553.447-1 1-1s1 .447 1 1c0 2.206-1.794 4-4 4z" data-original="#000000" class="" data-old_color="#000000" style="fill:#003333"/><path d="m41 50c-.553 0-1-.447-1-1v-5c0-.553.447-1 1-1s1 .447 1 1v5c0 .553-.447 1-1 1z" data-original="#000000" class="" data-old_color="#000000" style="fill:#003333"/><path d="m38 53h-3.002c-.553 0-1-.447-1-1s.447-1 1-1h3.002c.553 0 1 .447 1 1s-.447 1-1 1z" data-original="#000000" class="" data-old_color="#000000" style="fill:#003333"/><path d="m38 42h-3.002c-.553 0-1-.447-1-1s.447-1 1-1h3.002c.553 0 1 .447 1 1s-.447 1-1 1z" data-original="#000000" class="" data-old_color="#000000" style="fill:#003333"/><path d="m52.998 12c-.256 0-.512-.098-.707-.293l-2-2c-.391-.391-.391-1.023 0-1.414s1.023-.391 1.414 0l2 2c.391.391.391 1.023 0 1.414-.195.195-.451.293-.707.293z" data-original="#000000" class="" data-old_color="#000000" style="fill:#003333"/><path d="m52.998 12c-.256 0-.512-.098-.707-.293-.391-.391-.391-1.023 0-1.414l4-4c.391-.391 1.023-.391 1.414 0s.391 1.023 0 1.414l-4 4c-.195.195-.451.293-.707.293z" data-original="#000000" class="" data-old_color="#000000" style="fill:#003333"/></g> </svg>
