<?xml version="1.0"?>
<svg xmlns="http://www.w3.org/2000/svg" xmlns:xlink="http://www.w3.org/1999/xlink" version="1.1" id="Layer_1" x="0px" y="0px" viewBox="0 0 322 322" style="enable-background:new 0 0 322 322;" xml:space="preserve" width="512px" height="512px" class=""><g><g>
	<path style="fill:#CCCC99" d="M135.5,148.25L135.5,148.25c-4.349,0-7.875-3.526-7.875-7.875V120.5h15.75v19.875   C143.375,144.724,139.849,148.25,135.5,148.25z" data-original="#32A5B9" class="" data-old_color="#32A5B9"/>
	<path style="fill:#CCCC99" d="M147,127h-23c-8.284,0-15-6.716-15-15s6.716-15,15-15h23c8.284,0,15,6.716,15,15   S155.284,127,147,127z" data-original="#1C7287" class="active-path" data-old_color="#1C7287"/>
	<path style="fill:#33CC99" d="M209,199c0-5.565-3.038-10.411-7.538-13c4.5-2.589,7.538-7.435,7.538-13c0-8.284-6.716-15-15-15   h-33.496H127c-8.284,0-15,6.716-15,15c0,5.565,3.038,10.411,7.538,13c-4.5,2.589-7.538,7.435-7.538,13s3.038,10.411,7.538,13   c-4.5,2.589-7.538,7.435-7.538,13c0,8.284,6.716,15,15,15h33.5H194c8.284,0,15-6.716,15-15c0-5.565-3.038-10.411-7.538-13   C205.962,209.411,209,204.565,209,199z" data-original="#E45527" class="" data-old_color="#E45527"/>
	<path style="fill:#33CC99" d="M160.504,158H127c-8.284,0-15,6.716-15,15c0,5.565,3.038,10.411,7.538,13   c-4.5,2.589-7.538,7.435-7.538,13s3.038,10.411,7.538,13c-4.5,2.589-7.538,7.435-7.538,13c0,8.284,6.716,15,15,15h33.5L160.504,158   z" data-original="#C0491F" class="" data-old_color="#C0491F"/>
	<path style="fill:#FFCCCC" d="M284.991,72H160.504H40.009c-8.284,0-15-6.716-15-15s6.716-15,15-15h120.495h124.487   c8.284,0,15,6.716,15,15S293.275,72,284.991,72z" data-original="#C4C8C4" class="" data-old_color="#C4C8C4"/>
	<path style="fill:#FFCCCC" d="M160.504,72H40.009c-8.284,0-15-6.716-15-15s6.716-15,15-15h120.495V72z" data-original="#A5A9A6" class="" data-old_color="#A5A9A6"/>
	<path style="fill:#FFCCCC" d="M284.991,111.25H160.504H40.009c-8.284,0-15-6.716-15-15s6.716-15,15-15h120.495h124.487   c8.284,0,15,6.716,15,15S293.275,111.25,284.991,111.25z" data-original="#C4C8C4" class="" data-old_color="#C4C8C4"/>
	<path style="fill:#FFCCCC" d="M160.504,111.25H40.009c-8.284,0-15-6.716-15-15s6.716-15,15-15h120.495V111.25z" data-original="#A5A9A6" class="" data-old_color="#A5A9A6"/>
	<path style="fill:#CCCC99" d="M297.493,320.371c-8.284,0-15-6.716-15-15V16.629c0-8.284,6.716-15,15-15s15,6.716,15,15v288.742   C312.493,313.655,305.777,320.371,297.493,320.371z" data-original="#1C7287" class="active-path" data-old_color="#1C7287"/>
	<path style="fill:#FFCCCC" d="M27.507,320.371c-8.284,0-15-6.716-15-15V16.629c0-8.284,6.716-15,15-15s15,6.716,15,15v288.742   C42.507,313.655,35.791,320.371,27.507,320.371z" data-original="#165C6C" class="" data-old_color="#165C6C"/>
	<path style="fill:#CCCC99" d="M0,236v39c0,13.807,11.193,25,25,25h272c13.807,0,25-11.193,25-25v-39H0z" data-original="#32A5B9" class="" data-old_color="#32A5B9"/>
	<path style="fill:#FFCCCC" d="M0,236v39c0,13.807,11.193,25,25,25h135v-64H0z" data-original="#2B8A9A" class="" data-old_color="#2B8A9A"/>
</g></g> </svg>
